<svg id="Capa_1" enable-background="new 0 0 512 512" height="512" viewBox="0 0 512 512" width="512" xmlns="http://www.w3.org/2000/svg" xmlns:xlink="http://www.w3.org/1999/xlink"><linearGradient id="SVGID_1_" gradientUnits="userSpaceOnUse" x1="0" x2="512" y1="256" y2="256"><stop offset="0" stop-color="#9dd6fc"/><stop offset=".0056" stop-color="#9dd6fc"/><stop offset="1" stop-color="#d17ff7"/></linearGradient><g><g><path d="m81.858 150.142c3.905 3.905 9.024 5.858 14.142 5.858 11.044 0 20-8.949 20-20 0-5.118-1.953-10.237-5.858-14.142l-40-40c-3.905-3.905-9.024-5.858-14.142-5.858-11.044 0-20 8.949-20 20 0 5.118 1.953 10.237 5.858 14.142zm174.142-30.142c11.046 0 20-8.954 20-20v-80c0-11.046-8.954-20-20-20s-20 8.954-20 20v80c0 11.046 8.954 20 20 20zm160 36c5.118 0 10.237-1.953 14.142-5.858l40-40c3.905-3.905 5.858-9.024 5.858-14.142 0-11.044-8.949-20-20-20-5.118 0-10.237 1.953-14.142 5.858l-40 40c-3.905 3.905-5.858 9.024-5.858 14.142 0 11.044 8.949 20 20 20zm-160-3.85c-138.774 0-256 163.642-256 179.85 0 17.272 118.058 180 256 180 138.647 0 256-163.97 256-180 0-17.336-117.673-179.85-256-179.85zm0 319.85c-100.769 0-186.248-105.415-211.584-140.015 25.292-34.629 110.567-139.985 211.584-139.985 100.762 0 186.236 105.4 211.584 140.016-25.293 34.628-110.567 139.984-211.584 139.984zm0-160c-11.046 0-20 8.954-20 20s8.954 20 20 20 20-8.954 20-20-8.954-20-20-20zm0-80c-55.14 0-100 44.86-100 100s44.86 100 100 100 100-44.86 100-100-44.86-100-100-100zm0 160c-33.084 0-60-26.916-60-60s26.916-60 60-60 60 26.916 60 60-26.916 60-60 60z" fill="url(#SVGID_1_)"/></g></g></svg>